<svg width="38" height="40" viewBox="0 0 38 40" fill="none" xmlns="http://www.w3.org/2000/svg">
<path d="M19 4C19.1605 4 19.2406 4 19.3083 4.0056C20.1552 4.07578 20.828 4.78393 20.8946 5.67553C20.9 5.74675 20.9 5.83116 20.9 6V8.51156C20.9 8.58558 20.9 8.62258 20.8986 8.65827C20.8826 9.09085 20.7202 9.50316 20.4411 9.82107C20.4181 9.84729 20.3932 9.87346 20.3435 9.92578C20.2302 10.0452 20.1733 10.1049 20.1217 10.1513C19.4757 10.7321 18.5243 10.7321 17.8783 10.1513C17.8267 10.1049 17.7698 10.0452 17.6565 9.92578C17.6068 9.87346 17.5819 9.84729 17.5589 9.82107C17.2798 9.50316 17.1175 9.09085 17.1013 8.65827C17.1 8.62258 17.1 8.58558 17.1 8.51158V6C17.1 5.83116 17.1 5.74675 17.1053 5.67553C17.172 4.78393 17.8448 4.07578 18.6917 4.0056C18.7594 4 18.8395 4 19 4ZM32.3 18C32.4605 18 32.5406 18 32.6083 18.0056C33.4552 18.0758 34.128 18.784 34.1946 19.6755C34.2 19.7467 34.2 19.8311 34.2 20C34.2 20.1689 34.2 20.2533 34.1946 20.3245C34.128 21.216 33.4552 21.9242 32.6083 21.9944C32.5406 22 32.4605 22 32.3 22H29.9139C29.8436 22 29.8086 22 29.7747 21.9985C29.3636 21.9816 28.9721 21.8107 28.67 21.5169C28.6451 21.4927 28.6202 21.4665 28.5705 21.4142C28.4572 21.2949 28.4003 21.2351 28.3563 21.1807C27.8044 20.5007 27.8044 19.4993 28.3563 18.8193C28.4003 18.7649 28.4572 18.7051 28.5705 18.5858C28.6202 18.5335 28.6451 18.5073 28.67 18.4831C28.9721 18.1893 29.3636 18.0184 29.7747 18.0015C29.8086 18 29.8436 18 29.9139 18H32.3ZM8.08599 18C8.1563 18 8.19145 18 8.22536 18.0015C8.63631 18.0184 9.02801 18.1893 9.33002 18.4831C9.35493 18.5073 9.37978 18.5335 9.42949 18.5858C9.54291 18.7051 9.59963 18.7649 9.64369 18.8193C10.1955 19.4993 10.1955 20.5007 9.64369 21.1807C9.59963 21.2351 9.54291 21.2949 9.42949 21.4142C9.37978 21.4665 9.35493 21.4927 9.33002 21.5169C9.02801 21.8107 8.63631 21.9816 8.22536 21.9985C8.19145 22 8.1563 22 8.086 22H5.7C5.53961 22 5.45941 22 5.39175 21.9944C4.54473 21.9242 3.87199 21.216 3.80532 20.3245C3.8 20.2533 3.8 20.1689 3.8 20C3.8 19.8311 3.8 19.7467 3.80532 19.6755C3.87199 18.784 4.54473 18.0758 5.39175 18.0056C5.45941 18 5.53961 18 5.7 18H8.08599ZM17.6565 30.0742C17.7698 29.9549 17.8267 29.8951 17.8783 29.8487C18.5243 29.2678 19.4757 29.2678 20.1217 29.8487C20.1733 29.8951 20.2302 29.9549 20.3435 30.0742C20.3932 30.1265 20.4181 30.1527 20.4411 30.1789C20.7202 30.4969 20.8826 30.9091 20.8986 31.3418C20.9 31.3775 20.9 31.4144 20.9 31.4884V34C20.9 34.1689 20.9 34.2533 20.8946 34.3245C20.828 35.216 20.1552 35.9242 19.3083 35.9944C19.2406 36 19.1605 36 19 36C18.8395 36 18.7594 36 18.6917 35.9944C17.8448 35.9242 17.172 35.216 17.1053 34.3245C17.1 34.2533 17.1 34.1689 17.1 34V31.4884C17.1 31.4144 17.1 31.3775 17.1013 31.3418C17.1175 30.9091 17.2798 30.4969 17.5589 30.1789C17.5819 30.1527 17.6068 30.1265 17.6565 30.0742ZM24.7 3.63636C24.7 1.92216 24.7 1.06507 24.1941 0.532527C23.6882 -1.08372e-07 22.8739 0 21.2455 0H16.7545C15.1261 0 14.3118 -1.08372e-07 13.8059 0.532527C13.3 1.06507 13.3 1.92216 13.3 3.63636V9.49376C13.3 10.2369 13.3 10.6085 13.4315 10.9427C13.563 11.2768 13.8126 11.5396 14.3118 12.0651L16.5573 14.4287C17.7089 15.6408 18.2846 16.2469 19 16.2469C19.7154 16.2469 20.2911 15.6408 21.4427 14.4287L23.6882 12.0651C24.1873 11.5396 24.4371 11.2768 24.5686 10.9427C24.7 10.6085 24.7 10.2369 24.7 9.49376V3.63636ZM38 17.6364C38 15.9222 38 15.0651 37.4941 14.5325C36.9882 14 36.1739 14 34.5455 14H28.9809C28.2749 14 27.9219 14 27.6044 14.1384C27.2871 14.2768 27.0373 14.5396 26.5382 15.0651L24.2927 17.4287C23.1411 18.6409 22.5654 19.2469 22.5654 20C22.5654 20.7531 23.1411 21.3591 24.2927 22.5713L26.5382 24.9349C27.0373 25.4604 27.2871 25.7233 27.6044 25.8616C27.9219 26 28.2749 26 28.9809 26H34.5455C36.1739 26 36.9882 26 37.4941 25.4675C38 24.9349 38 24.0778 38 22.3636V17.6364ZM11.4618 15.0651C10.9626 14.5396 10.713 14.2768 10.3955 14.1384C10.0781 14 9.7251 14 9.01908 14H3.45455C1.82606 14 1.01181 14 0.505906 14.5325C0 15.0651 0 15.9222 0 17.6364V22.3636C0 24.0778 0 24.9349 0.505906 25.4675C1.01181 26 1.82606 26 3.45455 26H9.01908C9.7251 26 10.0781 26 10.3955 25.8616C10.713 25.7233 10.9626 25.4604 11.4618 24.9349L13.7073 22.5713C14.8588 21.3591 15.4345 20.7531 15.4345 20C15.4345 19.2469 14.8588 18.6409 13.7073 17.4287L11.4618 15.0651ZM21.4427 25.5713C20.2911 24.3591 19.7154 23.7531 19 23.7531C18.2846 23.7531 17.7089 24.3591 16.5573 25.5713L14.3118 27.9349C13.8126 28.4604 13.563 28.7233 13.4315 29.0573C13.3 29.3915 13.3 29.7631 13.3 30.5062V36.3636C13.3 38.0778 13.3 38.9349 13.8059 39.4675C14.3118 40 15.1261 40 16.7545 40H21.2455C22.8739 40 23.6882 40 24.1941 39.4675C24.7 38.9349 24.7 38.0778 24.7 36.3636V30.5062C24.7 29.7631 24.7 29.3915 24.5686 29.0573C24.4371 28.7233 24.1873 28.4604 23.6882 27.9349L21.4427 25.5713Z" fill="#AAAAAA"/>
</svg>
