<svg width="112" height="38" viewBox="0 0 112 38" fill="none" xmlns="http://www.w3.org/2000/svg">
<path d="M5.62749 17.6336C4.36477 17.6336 3.27441 17.3098 2.35606 16.6623C1.43771 15.9982 0.79818 15.1098 0.43748 13.9973C0.175168 13.2501 0.0439262 12.2539 0.0439262 11.0086C0.0439262 9.81306 0.175168 8.83341 0.43748 8.06963C0.78184 6.97375 1.41311 6.11034 2.33146 5.47938C3.26616 4.83181 4.36477 4.50803 5.62749 4.50803C6.90654 4.50803 8.02167 4.83181 8.9727 5.47938C9.92374 6.12694 10.5552 6.94054 10.8667 7.92019C10.9487 8.18585 11.006 8.45153 11.0389 8.71719V8.767C11.0389 8.93303 10.9487 9.03266 10.7683 9.06588L8.55455 9.38966H8.50536C8.35778 9.38966 8.25939 9.30663 8.21019 9.14059C8.21019 9.05757 8.20194 8.99116 8.1856 8.94134C8.15274 8.80851 8.12006 8.69228 8.08721 8.59266C7.93962 8.12775 7.64446 7.74584 7.20171 7.44697C6.75896 7.14809 6.23416 6.99866 5.62749 6.99866C5.0043 6.99866 4.47142 7.16469 4.02867 7.49678C3.60226 7.81225 3.31535 8.25228 3.16777 8.81681C3.00385 9.34815 2.92179 10.087 2.92179 11.0335C2.92179 11.9467 2.99559 12.6856 3.14317 13.2501C3.3071 13.8313 3.60226 14.2962 4.02867 14.6449C4.45508 14.977 4.98796 15.143 5.62749 15.143C6.25067 15.143 6.78355 14.9853 7.2263 14.6698C7.68539 14.3377 7.98056 13.8977 8.1118 13.3498C8.12814 13.3165 8.1364 13.275 8.1364 13.2252C8.15274 13.2086 8.161 13.1837 8.161 13.1505C8.21019 12.9513 8.32492 12.8682 8.50536 12.9014L10.7191 13.2501C10.8012 13.2667 10.8667 13.3082 10.9159 13.3747C10.9814 13.4245 11.006 13.4992 10.9897 13.5988C10.9405 13.8645 10.8995 14.0554 10.8667 14.1717C10.5552 15.2343 9.92374 16.0811 8.9727 16.7121C8.02167 17.3264 6.90654 17.6336 5.62749 17.6336ZM18.673 17.6336C17.3776 17.6336 16.2624 17.3015 15.3277 16.6374C14.4096 15.9733 13.7618 15.0517 13.3846 13.8728C13.1059 12.9762 12.9664 12.0297 12.9664 11.0335C12.9664 9.97081 13.0977 9.02437 13.36 8.19416C13.7372 7.03187 14.393 6.12694 15.3277 5.47938C16.2624 4.83181 17.3858 4.50803 18.6976 4.50803C19.9439 4.50803 21.018 4.83181 21.9198 5.47938C22.8381 6.12694 23.4859 7.02356 23.863 8.16925C24.1581 8.96625 24.3057 9.91269 24.3057 11.0086C24.3057 12.0546 24.1664 13.0011 23.8876 13.8479C23.5105 15.0268 22.8627 15.9565 21.9444 16.6374C21.0262 17.3015 19.9357 17.6336 18.673 17.6336ZM18.673 15.143C19.2798 15.143 19.7964 14.9687 20.2226 14.62C20.6653 14.2713 20.9851 13.7815 21.1819 13.1505C21.346 12.6026 21.4278 11.9052 21.4278 11.0584C21.4278 10.1617 21.346 9.46438 21.1819 8.96625C21.0016 8.33529 20.6899 7.85378 20.2472 7.52169C19.8044 7.173 19.2633 6.99866 18.6238 6.99866C18.0171 6.99866 17.4923 7.173 17.0495 7.52169C16.6068 7.85378 16.287 8.33529 16.0903 8.96625C15.9263 9.5474 15.8443 10.2448 15.8443 11.0584C15.8443 11.872 15.9263 12.5693 16.0903 13.1505C16.2707 13.7815 16.5822 14.2713 17.025 14.62C17.4842 14.9687 18.0334 15.143 18.673 15.143ZM34.8005 0.298875C34.8005 0.215848 34.8251 0.149438 34.8743 0.099625C34.94 0.0332143 35.0138 0 35.0956 0H37.3586C37.4406 0 37.5062 0.0332143 37.5554 0.099625C37.6211 0.149438 37.6537 0.215848 37.6537 0.298875V17.1355C37.6537 17.2186 37.6211 17.2933 37.5554 17.3597C37.5062 17.4095 37.4406 17.4344 37.3586 17.4344H35.0956C35.0138 17.4344 34.94 17.4095 34.8743 17.3597C34.8251 17.2933 34.8005 17.2186 34.8005 17.1355V16.3883C34.8005 16.3385 34.7841 16.3052 34.7513 16.2887C34.7186 16.2721 34.6857 16.2887 34.6529 16.3385C33.9315 17.2019 32.9885 17.6336 31.8242 17.6336C30.6601 17.6336 29.6762 17.3264 28.8725 16.7121C28.0691 16.0978 27.487 15.2426 27.1261 14.1468C26.831 13.2169 26.6834 12.1792 26.6834 11.0335C26.6834 9.85457 26.8229 8.84172 27.1015 7.99491C27.4624 6.89903 28.0445 6.04391 28.8479 5.42956C29.6516 4.81521 30.6601 4.50803 31.8734 4.50803C33.0049 4.50803 33.9315 4.92313 34.6529 5.75334C34.6857 5.78656 34.7186 5.80316 34.7513 5.80316C34.7841 5.78656 34.8005 5.75334 34.8005 5.70353V0.298875ZM34.2101 13.9475C34.5873 13.2667 34.7759 12.3037 34.7759 11.0584C34.7759 9.76325 34.571 8.77531 34.1609 8.09453C33.7182 7.36394 33.0952 6.99866 32.2915 6.99866C31.4552 6.99866 30.7994 7.34734 30.3238 8.04472C29.8318 8.77531 29.5859 9.78816 29.5859 11.0833C29.5859 12.2456 29.7826 13.2003 30.1762 13.9475C30.6355 14.7445 31.3323 15.143 32.267 15.143C33.1033 15.143 33.751 14.7445 34.2101 13.9475ZM46.0807 17.6336C44.7852 17.6336 43.6702 17.3015 42.7355 16.6374C41.8172 15.9733 41.1694 15.0517 40.7923 13.8728C40.5135 12.9762 40.3742 12.0297 40.3742 11.0335C40.3742 9.97081 40.5053 9.02437 40.7677 8.19416C41.1448 7.03187 41.8008 6.12694 42.7355 5.47938C43.6702 4.83181 44.7934 4.50803 46.1053 4.50803C47.3515 4.50803 48.4256 4.83181 49.3276 5.47938C50.2457 6.12694 50.8935 7.02356 51.2707 8.16925C51.5659 8.96625 51.7135 9.91269 51.7135 11.0086C51.7135 12.0546 51.574 13.0011 51.2953 13.8479C50.9181 15.0268 50.2703 15.9565 49.3522 16.6374C48.4338 17.3015 47.3433 17.6336 46.0807 17.6336ZM46.0807 15.143C46.6874 15.143 47.2039 14.9687 47.6304 14.62C48.0731 14.2713 48.3929 13.7815 48.5897 13.1505C48.7536 12.6026 48.8356 11.9052 48.8356 11.0584C48.8356 10.1617 48.7536 9.46438 48.5897 8.96625C48.4092 8.33529 48.0977 7.85378 47.655 7.52169C47.2122 7.173 46.6711 6.99866 46.0315 6.99866C45.4247 6.99866 44.9001 7.173 44.4573 7.52169C44.0146 7.85378 43.6948 8.33529 43.498 8.96625C43.3339 9.5474 43.2521 10.2448 43.2521 11.0584C43.2521 11.872 43.3339 12.5693 43.498 13.1505C43.6783 13.7815 43.99 14.2713 44.4327 14.62C44.8918 14.9687 45.4412 15.143 46.0807 15.143ZM65.0615 7.99491C65.3567 8.84172 65.5043 9.87947 65.5043 11.1082C65.5043 12.2871 65.3648 13.2999 65.0861 14.1468C64.7252 15.2426 64.1432 16.0978 63.3397 16.7121C62.5526 17.3264 61.5522 17.6336 60.3389 17.6336C59.1745 17.6336 58.2398 17.2102 57.5348 16.3634C57.5019 16.3301 57.4691 16.322 57.4364 16.3385C57.4035 16.355 57.3872 16.3883 57.3872 16.4381V21.8428C57.3872 21.9259 57.3543 21.9922 57.2888 22.042C57.2396 22.1084 57.1739 22.1417 57.092 22.1417H54.8291C54.747 22.1417 54.6732 22.1084 54.6077 22.042C54.5585 21.9922 54.5339 21.9259 54.5339 21.8428V5.00616C54.5339 4.92313 54.5585 4.85672 54.6077 4.80691C54.6732 4.7405 54.747 4.70728 54.8291 4.70728H57.092C57.1739 4.70728 57.2396 4.7405 57.2888 4.80691C57.3543 4.85672 57.3872 4.92313 57.3872 5.00616V5.75334C57.3872 5.80316 57.4035 5.83637 57.4364 5.85297C57.4691 5.86957 57.5019 5.85297 57.5348 5.80316C58.2562 4.93975 59.1991 4.50803 60.3635 4.50803C61.5276 4.50803 62.5115 4.81521 63.3151 5.42956C64.1186 6.04391 64.7006 6.89903 65.0615 7.99491ZM61.8639 14.0969C62.3558 13.3332 62.6018 12.3203 62.6018 11.0584C62.6018 9.84628 62.405 8.89153 62.0115 8.19416C61.5522 7.38056 60.8554 6.97375 59.9207 6.97375C59.0679 6.97375 58.4284 7.37225 58.0021 8.16925C57.6249 8.81681 57.4364 9.77985 57.4364 11.0584C57.4364 12.3701 57.6412 13.3663 58.0513 14.0471C58.4776 14.7777 59.0925 15.143 59.8961 15.143C60.7651 15.143 61.4211 14.7943 61.8639 14.0969ZM74.1249 4.55784C74.6497 4.55784 75.1088 4.66578 75.5023 4.88163C75.6336 4.94804 75.6828 5.07257 75.6499 5.25522L75.2318 7.49678C75.2154 7.69603 75.1007 7.75415 74.8874 7.67113C74.6414 7.5881 74.3545 7.54659 74.0265 7.54659C73.8134 7.54659 73.6495 7.5549 73.5345 7.5715C72.8458 7.60471 72.272 7.85378 71.8128 8.31869C71.3537 8.767 71.124 9.35644 71.124 10.087V17.1355C71.124 17.2186 71.0913 17.2933 71.0256 17.3597C70.9764 17.4095 70.9109 17.4344 70.8289 17.4344H68.5659C68.484 17.4344 68.4102 17.4095 68.3445 17.3597C68.2953 17.2933 68.2707 17.2186 68.2707 17.1355V5.00616C68.2707 4.92313 68.2953 4.85672 68.3445 4.80691C68.4102 4.7405 68.484 4.70728 68.5659 4.70728H70.8289C70.9109 4.70728 70.9764 4.7405 71.0256 4.80691C71.0913 4.85672 71.124 4.92313 71.124 5.00616V6.12694C71.124 6.19335 71.1323 6.23487 71.1486 6.25147C71.1815 6.25147 71.2143 6.22656 71.247 6.17675C71.9357 5.09747 72.895 4.55784 74.1249 4.55784ZM87.88 9.63872C87.9455 10.0538 87.9784 10.5187 87.9784 11.0335L87.9538 11.8056C87.9538 12.0048 87.8554 12.1044 87.6586 12.1044H79.9597C79.8776 12.1044 79.8367 12.1459 79.8367 12.229C79.8859 12.7769 79.9597 13.1505 80.0581 13.3498C80.4516 14.5453 81.4109 15.1513 82.9359 15.1679C84.0509 15.1679 84.9364 14.703 85.5924 13.7732C85.658 13.6735 85.74 13.6237 85.8384 13.6237C85.9039 13.6237 85.9614 13.6486 86.0106 13.6984L87.5356 14.9687C87.6832 15.0849 87.7078 15.2177 87.6094 15.3672C87.101 16.0978 86.4205 16.6623 85.5678 17.0608C84.7315 17.4593 83.7968 17.6585 82.7638 17.6585C81.4847 17.6585 80.3942 17.368 79.4923 16.7868C78.6068 16.2056 77.9591 15.3921 77.5492 14.346C77.172 13.4494 76.9834 12.2041 76.9834 10.6101C76.9834 9.64703 77.0818 8.86662 77.2786 8.26888C77.6064 7.10659 78.2214 6.19335 79.1234 5.52919C80.0416 4.84841 81.1404 4.50803 82.4194 4.50803C85.6497 4.50803 87.4699 6.21826 87.88 9.63872ZM82.4194 6.99866C81.8126 6.99866 81.3043 7.1564 80.8944 7.47187C80.5008 7.77075 80.222 8.19416 80.0581 8.74209C79.9597 9.02437 79.894 9.38966 79.8613 9.83797C79.8284 9.921 79.8613 9.9625 79.9597 9.9625H84.9529C85.0348 9.9625 85.0759 9.921 85.0759 9.83797C85.0431 9.42287 84.9939 9.10738 84.9283 8.89153C84.7807 8.29378 84.4856 7.82887 84.0428 7.49678C83.6164 7.16469 83.0753 6.99866 82.4194 6.99866ZM95.0673 17.5838C94.0342 17.5838 93.1241 17.4344 92.337 17.1355C91.5664 16.8201 90.9678 16.3967 90.5414 15.8653C90.1152 15.3173 89.9019 14.7113 89.9019 14.0471V13.823C89.9019 13.7399 89.9265 13.6735 89.9757 13.6237C90.0414 13.5573 90.1152 13.5241 90.197 13.5241H92.3616C92.4436 13.5241 92.5092 13.5573 92.5584 13.6237C92.6241 13.6735 92.6568 13.7399 92.6568 13.823V13.8728C92.6568 14.2879 92.8781 14.6532 93.3209 14.9687C93.7802 15.2675 94.354 15.417 95.0427 15.417C95.6987 15.417 96.2316 15.2841 96.6415 15.0185C97.0516 14.7362 97.2564 14.3875 97.2564 13.9724C97.2564 13.5905 97.0843 13.3082 96.7399 13.1256C96.412 12.9263 95.8709 12.7188 95.1165 12.5029L94.1818 12.2041C93.3455 11.955 92.6404 11.6893 92.0664 11.4071C91.4926 11.1248 91.0088 10.7429 90.6152 10.2614C90.2216 9.76325 90.0249 9.13229 90.0249 8.3685C90.0249 7.20621 90.4759 6.28468 91.3777 5.60391C92.2797 4.90653 93.4685 4.55784 94.9443 4.55784C95.9447 4.55784 96.8219 4.72388 97.5762 5.05597C98.3306 5.37144 98.9127 5.81975 99.3226 6.40091C99.7327 6.96544 99.9375 7.613 99.9375 8.34359C99.9375 8.42662 99.9049 8.50134 99.8391 8.56775C99.7899 8.61756 99.7244 8.64247 99.6424 8.64247H97.5516C97.4697 8.64247 97.3959 8.61756 97.3302 8.56775C97.281 8.50134 97.2564 8.42662 97.2564 8.34359C97.2564 7.91188 97.0433 7.5549 96.6169 7.27263C96.207 6.97375 95.6413 6.82431 94.9197 6.82431C94.2802 6.82431 93.7556 6.94884 93.3455 7.19791C92.9519 7.43037 92.7552 7.76244 92.7552 8.19416C92.7552 8.59266 92.9438 8.89984 93.3209 9.11569C93.7144 9.31494 94.3622 9.53909 95.2641 9.78816L95.8052 9.93759C96.6744 10.2033 97.404 10.4772 97.9943 10.7595C98.5847 11.0252 99.0849 11.4071 99.4948 11.9052C99.9049 12.3867 100.11 13.0177 100.11 13.7981C100.11 14.977 99.6506 15.9067 98.7323 16.5876C97.8141 17.2517 96.5923 17.5838 95.0673 17.5838ZM106.958 17.5838C105.924 17.5838 105.014 17.4344 104.227 17.1355C103.457 16.8201 102.858 16.3967 102.432 15.8653C102.005 15.3173 101.792 14.7113 101.792 14.0471V13.823C101.792 13.7399 101.817 13.6735 101.866 13.6237C101.931 13.5573 102.005 13.5241 102.087 13.5241H104.252C104.334 13.5241 104.399 13.5573 104.449 13.6237C104.514 13.6735 104.547 13.7399 104.547 13.823V13.8728C104.547 14.2879 104.768 14.6532 105.211 14.9687C105.67 15.2675 106.244 15.417 106.933 15.417C107.589 15.417 108.122 15.2841 108.532 15.0185C108.942 14.7362 109.147 14.3875 109.147 13.9724C109.147 13.5905 108.975 13.3082 108.63 13.1256C108.302 12.9263 107.761 12.7188 107.007 12.5029L106.072 12.2041C105.236 11.955 104.531 11.6893 103.957 11.4071C103.383 11.1248 102.899 10.7429 102.505 10.2614C102.112 9.76325 101.915 9.13229 101.915 8.3685C101.915 7.20621 102.366 6.28468 103.268 5.60391C104.17 4.90653 105.359 4.55784 106.835 4.55784C107.835 4.55784 108.712 4.72388 109.466 5.05597C110.221 5.37144 110.803 5.81975 111.213 6.40091C111.623 6.96544 111.828 7.613 111.828 8.34359C111.828 8.42662 111.795 8.50134 111.729 8.56775C111.68 8.61756 111.615 8.64247 111.533 8.64247H109.442C109.36 8.64247 109.286 8.61756 109.221 8.56775C109.171 8.50134 109.147 8.42662 109.147 8.34359C109.147 7.91188 108.934 7.5549 108.507 7.27263C108.097 6.97375 107.532 6.82431 106.81 6.82431C106.17 6.82431 105.646 6.94884 105.236 7.19791C104.842 7.43037 104.645 7.76244 104.645 8.19416C104.645 8.59266 104.834 8.89984 105.211 9.11569C105.605 9.31494 106.253 9.53909 107.154 9.78816L107.695 9.93759C108.565 10.2033 109.294 10.4772 109.885 10.7595C110.475 11.0252 110.975 11.4071 111.385 11.9052C111.795 12.3867 112 13.0177 112 13.7981C112 14.977 111.541 15.9067 110.623 16.5876C109.704 17.2517 108.483 17.5838 106.958 17.5838ZM0 33.9412L5.68125 31.4719V30.5208L0 28.0581V29.3024L4.1629 30.866L4.5489 30.9898L4.1629 31.1006L0 32.6902V33.9412ZM14.9168 31.6413V31.7781C14.9168 32.2819 14.9811 32.7531 15.1099 33.1918C15.2385 33.6263 15.423 34.0041 15.6631 34.3254C15.8991 34.6469 16.1886 34.8988 16.5318 35.0812C16.8749 35.2637 17.2588 35.3548 17.6835 35.3548C17.9366 35.3548 18.1724 35.3267 18.3913 35.2701C18.6101 35.218 18.8095 35.142 18.9896 35.0422C19.1053 34.9769 19.2127 34.901 19.3113 34.8141C19.4142 34.7273 19.5108 34.6316 19.6008 34.5275V35.1333C19.6008 35.4373 19.5579 35.7067 19.4722 35.9411C19.3865 36.1758 19.2642 36.3711 19.1053 36.5275C18.9425 36.6883 18.7473 36.8098 18.5199 36.8924C18.2926 36.9749 18.0373 37.0162 17.7543 37.0162C17.5956 37.0162 17.4368 36.9988 17.2781 36.9641C17.1195 36.9337 16.9606 36.8815 16.802 36.8077C16.6433 36.7339 16.4868 36.6339 16.3324 36.5079C16.1779 36.3864 16.0277 36.2365 15.8819 36.0586L15.2643 36.7816C15.423 37.0118 15.6117 37.2051 15.8304 37.3615C16.0535 37.5179 16.2851 37.6415 16.5253 37.7328C16.7612 37.8283 16.9951 37.8957 17.2266 37.9347C17.4582 37.9783 17.6641 38 17.8444 38C18.2819 38 18.6807 37.9347 19.041 37.8045C19.4014 37.6743 19.7124 37.483 19.974 37.2311C20.2314 36.9792 20.4308 36.673 20.5724 36.3126C20.7182 35.952 20.7911 35.5394 20.7911 35.0748V28.1754H19.7103L19.6523 28.9441C19.5708 28.8398 19.4829 28.7443 19.3886 28.6575C19.2984 28.5707 19.202 28.4945 19.099 28.4294C18.9103 28.3035 18.6979 28.2079 18.462 28.1428C18.2304 28.0777 17.9751 28.0451 17.6963 28.0451C17.2632 28.0451 16.8749 28.1341 16.5318 28.3122C16.1886 28.4903 15.897 28.7379 15.6568 29.0549C15.4165 29.3719 15.2322 29.7519 15.1034 30.1951C14.979 30.6336 14.9168 31.1157 14.9168 31.6413ZM16.1071 31.7781V31.6413C16.1071 31.2983 16.1414 30.9725 16.2101 30.664C16.283 30.3513 16.3967 30.0755 16.5511 29.8366C16.7011 29.6021 16.8942 29.4153 17.1302 29.2764C17.3704 29.1375 17.6578 29.0679 17.9923 29.0679C18.1896 29.0679 18.3697 29.0941 18.5328 29.1462C18.6958 29.1939 18.8437 29.2611 18.9767 29.3481C19.1097 29.4392 19.2276 29.5457 19.3306 29.6673C19.4335 29.7889 19.5237 29.9236 19.6008 30.0713V33.3027C19.5237 33.4546 19.4335 33.5937 19.3306 33.7197C19.2276 33.8456 19.1118 33.9542 18.9832 34.0454C18.8502 34.1365 18.7 34.2082 18.5328 34.2603C18.3697 34.3082 18.1854 34.332 17.9795 34.332C17.6492 34.332 17.3661 34.2646 17.1302 34.1301C16.8942 33.991 16.7011 33.8044 16.5511 33.5697C16.3967 33.3352 16.283 33.0638 16.2101 32.7555C16.1414 32.447 16.1071 32.1212 16.1071 31.7781ZM34.8716 35.2246H36.1134V35.1203C36.0361 34.9248 35.976 34.6969 35.9332 34.4363C35.8903 34.1714 35.8689 33.9216 35.8689 33.6869V30.41C35.8689 30.0147 35.7981 29.6694 35.6566 29.3741C35.515 29.0788 35.3219 28.8311 35.0775 28.6313C34.8288 28.436 34.5348 28.2905 34.1961 28.1949C33.8572 28.095 33.4903 28.0451 33.0957 28.0451C32.6626 28.0451 32.2743 28.1058 31.9312 28.2275C31.5923 28.3492 31.3049 28.5077 31.0691 28.703C30.8289 28.9028 30.6444 29.1266 30.5156 29.3741C30.3912 29.6217 30.3269 29.8736 30.3227 30.1298H31.5194C31.5194 29.9821 31.5536 29.8411 31.6223 29.7064C31.6952 29.5675 31.7961 29.4479 31.9247 29.3481C32.0535 29.2481 32.21 29.1679 32.3945 29.107C32.5832 29.0462 32.7954 29.0158 33.0314 29.0158C33.2846 29.0158 33.5119 29.0483 33.7134 29.1134C33.9194 29.1787 34.0931 29.2698 34.2346 29.3872C34.3762 29.5087 34.4856 29.6543 34.5628 29.8236C34.6399 29.993 34.6785 30.1841 34.6785 30.397V30.9508H33.3789C32.8942 30.9508 32.4544 30.9985 32.0598 31.094C31.6696 31.1896 31.3349 31.333 31.0561 31.524C30.7774 31.7195 30.5608 31.9627 30.4064 32.2538C30.2561 32.5448 30.1811 32.8835 30.1811 33.2701C30.1811 33.5654 30.2368 33.8412 30.3484 34.0975C30.4642 34.3495 30.6272 34.5665 30.8373 34.749C31.0432 34.9356 31.2941 35.0835 31.5902 35.192C31.8904 35.3005 32.225 35.3548 32.5939 35.3548C32.8213 35.3548 33.0358 35.3309 33.2373 35.2833C33.4388 35.2354 33.6298 35.1703 33.8099 35.0877C33.9858 35.0052 34.1467 34.9097 34.2925 34.8011C34.4426 34.6924 34.5777 34.5773 34.6979 34.4558C34.7107 34.6035 34.73 34.7467 34.7558 34.8858C34.7857 35.0205 34.8244 35.1333 34.8716 35.2246ZM32.7677 34.3059C32.5359 34.3059 32.3323 34.2756 32.1564 34.2148C31.9806 34.1539 31.8347 34.0693 31.7188 33.9607C31.603 33.8565 31.5152 33.7305 31.4551 33.5827C31.3994 33.435 31.3714 33.2744 31.3714 33.1008C31.3714 32.9182 31.4036 32.7555 31.4679 32.6121C31.5366 32.4687 31.6352 32.3449 31.7639 32.2408C31.944 32.0929 32.1865 31.9844 32.491 31.9149C32.7998 31.841 33.1602 31.8042 33.5718 31.8042H34.6785V33.231C34.61 33.3699 34.5155 33.5046 34.3955 33.6348C34.2753 33.7608 34.1339 33.8737 33.9708 33.9737C33.8036 34.0735 33.6191 34.1539 33.4174 34.2148C33.2159 34.2756 32.9992 34.3059 32.7677 34.3059ZM46.0052 28.1754H44.9371V35.2246H46.0695V29.6151C46.0953 29.5458 46.1275 29.4805 46.166 29.4198C46.209 29.359 46.2582 29.3047 46.3141 29.2568C46.387 29.196 46.4748 29.1505 46.5778 29.12C46.6851 29.0853 46.8095 29.0679 46.951 29.0679C47.0797 29.0679 47.1911 29.0853 47.2857 29.12C47.3842 29.1505 47.4657 29.2004 47.53 29.2698C47.5987 29.3437 47.6481 29.4371 47.678 29.55C47.7124 29.663 47.7295 29.7932 47.7295 29.9409V35.2246H48.862V29.9475C48.862 29.9213 48.862 29.8996 48.862 29.8823C48.862 29.8606 48.862 29.8389 48.862 29.8171C48.8748 29.7085 48.9005 29.6109 48.9391 29.524C48.9778 29.4328 49.0313 29.3524 49.1 29.283C49.1686 29.2177 49.2545 29.1656 49.3574 29.1266C49.4602 29.0875 49.5825 29.0679 49.7241 29.0679C49.8571 29.0679 49.9729 29.0853 50.0715 29.12C50.1744 29.1547 50.2603 29.2068 50.3288 29.2764C50.3933 29.3502 50.4425 29.4436 50.477 29.5566C50.5112 29.6694 50.5284 29.7998 50.5284 29.9475V35.2246H51.6608V29.9604C51.6608 29.6217 51.6221 29.3285 51.545 29.0809C51.4677 28.829 51.3561 28.6249 51.2103 28.4686C51.0775 28.3296 50.9144 28.2254 50.7214 28.1558C50.5284 28.082 50.3118 28.0451 50.0715 28.0451C49.8956 28.0494 49.7327 28.0733 49.5825 28.1167C49.4367 28.1603 49.3037 28.2188 49.1837 28.2926C49.0893 28.3577 49.0013 28.4339 48.9198 28.5207C48.8383 28.6075 48.7676 28.7009 48.7075 28.8009C48.6603 28.6922 48.6025 28.5945 48.5338 28.5077C48.4695 28.4207 48.3966 28.3469 48.315 28.2862C48.2035 28.2079 48.0726 28.1492 47.9225 28.1103C47.7767 28.0669 47.6116 28.0451 47.4271 28.0451C47.1012 28.0494 46.8223 28.1211 46.5906 28.2601C46.3633 28.399 46.179 28.5924 46.0373 28.8398L46.0052 28.1754ZM60.8062 28.1754V29.2243H63.174V34.1822H60.8062V35.2246H66.6356V34.1822H64.3644V28.1754H60.8062ZM63.0196 26.3252C63.0196 26.5205 63.0774 26.6835 63.1934 26.8137C63.3134 26.9441 63.4934 27.0092 63.7338 27.0092C63.9696 27.0092 64.1477 26.9441 64.2677 26.8137C64.3879 26.6835 64.448 26.5205 64.448 26.3252C64.448 26.2165 64.4308 26.1167 64.3965 26.0254C64.3621 25.9342 64.3106 25.8582 64.2421 25.7974C64.1862 25.741 64.1156 25.6976 64.0297 25.6671C63.9439 25.6324 63.8452 25.615 63.7338 25.615C63.6222 25.615 63.5214 25.6324 63.4313 25.6671C63.3455 25.6976 63.2747 25.741 63.219 25.7974C63.1503 25.8625 63.0988 25.9408 63.0646 26.032C63.0345 26.1231 63.0196 26.2209 63.0196 26.3252ZM75.781 35.2246H76.9713V30.1689C77.0528 30.017 77.1472 29.8779 77.2543 29.7519C77.3659 29.626 77.4861 29.5153 77.6147 29.4198C77.7734 29.3111 77.9471 29.2264 78.1358 29.1656C78.3247 29.1005 78.5283 29.0679 78.7471 29.0679C79.0002 29.0679 79.2232 29.0983 79.4163 29.1592C79.6136 29.22 79.7808 29.3177 79.918 29.4524C80.051 29.587 80.1519 29.7628 80.2206 29.98C80.2891 30.1972 80.3235 30.4621 80.3235 30.7749V35.2246H81.5137V30.7487C81.5137 30.2798 81.4559 29.8758 81.3401 29.537C81.2286 29.1939 81.0676 28.9115 80.8575 28.69C80.6474 28.4686 80.3921 28.3056 80.0918 28.2013C79.7959 28.0973 79.4656 28.0451 79.1011 28.0451C78.8307 28.0494 78.5735 28.0907 78.3289 28.1688C78.0887 28.2426 77.8656 28.3492 77.6597 28.4881C77.5225 28.5792 77.3916 28.6879 77.2672 28.8139C77.1472 28.9354 77.0356 29.07 76.9326 29.2177L76.849 28.1754H75.781V35.2246ZM90.7236 31.6413V31.7781C90.7236 32.2819 90.7879 32.7531 90.9165 33.1918C91.0453 33.6263 91.2298 34.0041 91.4699 34.3254C91.7059 34.6469 91.9954 34.8988 92.3386 35.0812C92.6817 35.2637 93.0656 35.3548 93.4902 35.3548C93.7433 35.3548 93.9792 35.3267 94.198 35.2701C94.4167 35.218 94.6163 35.142 94.7964 35.0422C94.9121 34.9769 95.0195 34.901 95.1181 34.8141C95.221 34.7273 95.3175 34.6316 95.4076 34.5275V35.1333C95.4076 35.4373 95.3647 35.7067 95.279 35.9411C95.1931 36.1758 95.0708 36.3711 94.9122 36.5275C94.7491 36.6883 94.5541 36.8098 94.3267 36.8924C94.0994 36.9749 93.8441 37.0162 93.5611 37.0162C93.4022 37.0162 93.2436 36.9988 93.0849 36.9641C92.9261 36.9337 92.7674 36.8815 92.6088 36.8077C92.4501 36.7339 92.2934 36.6339 92.139 36.5079C91.9847 36.3864 91.8345 36.2365 91.6887 36.0586L91.0709 36.7816C91.2298 37.0118 91.4185 37.2051 91.6372 37.3615C91.8603 37.5179 92.0919 37.6415 92.3321 37.7328C92.568 37.8283 92.8017 37.8957 93.0334 37.9347C93.265 37.9783 93.4709 38 93.651 38C94.0887 38 94.4875 37.9347 94.8478 37.8045C95.2082 37.6743 95.5192 37.483 95.7808 37.2311C96.0382 36.9792 96.2376 36.673 96.3792 36.3126C96.525 35.952 96.5979 35.5394 96.5979 35.0748V28.1754H95.5171L95.4591 28.9441C95.3776 28.8398 95.2897 28.7443 95.1954 28.6575C95.1052 28.5707 95.0086 28.4945 94.9058 28.4294C94.717 28.3035 94.5047 28.2079 94.2688 28.1428C94.0372 28.0777 93.7819 28.0451 93.5031 28.0451C93.0698 28.0451 92.6817 28.1341 92.3386 28.3122C91.9954 28.4903 91.7036 28.7379 91.4634 29.0549C91.2233 29.3719 91.0388 29.7519 90.9102 30.1951C90.7858 30.6336 90.7236 31.1157 90.7236 31.6413ZM91.9139 31.7781V31.6413C91.9139 31.2983 91.9482 30.9725 92.0169 30.664C92.0898 30.3513 92.2035 30.0755 92.3579 29.8366C92.5079 29.6021 92.701 29.4153 92.937 29.2764C93.1772 29.1375 93.4644 29.0679 93.7991 29.0679C93.9964 29.0679 94.1765 29.0941 94.3396 29.1462C94.5026 29.1939 94.6505 29.2611 94.7835 29.3481C94.9165 29.4392 95.0344 29.5457 95.1374 29.6673C95.2403 29.7889 95.3305 29.9236 95.4076 30.0713V33.3027C95.3305 33.4546 95.2403 33.5937 95.1374 33.7197C95.0344 33.8456 94.9186 33.9542 94.7899 34.0454C94.657 34.1365 94.5068 34.2082 94.3396 34.2603C94.1765 34.3082 93.992 34.332 93.7861 34.332C93.456 34.332 93.1728 34.2646 92.937 34.1301C92.701 33.991 92.5079 33.8044 92.3579 33.5697C92.2035 33.3352 92.0898 33.0638 92.0169 32.7555C91.9482 32.447 91.9139 32.1212 91.9139 31.7781ZM111.882 36.2084V35.2246H105.981V36.2084H111.882Z" fill="#AAAAAA"/>
</svg>
