<svg width="32" height="33" viewBox="0 0 32 33" fill="none" xmlns="http://www.w3.org/2000/svg">
<path d="M4.57143 0C2.05 0 0 2.05586 0 4.58449V27.5069C0 30.0356 2.05 32.0914 4.57143 32.0914H27.4286C29.95 32.0914 32 30.0356 32 27.5069V4.58449C32 2.05586 29.95 0 27.4286 0H4.57143ZM6.85714 7.4498C6.85714 6.49708 7.62143 5.73061 8.57143 5.73061C18.3571 5.73061 26.2857 13.6818 26.2857 23.4955C26.2857 24.4482 25.5214 25.2147 24.5714 25.2147C23.6214 25.2147 22.8571 24.4482 22.8571 23.4955C22.8571 15.5801 16.4643 9.16898 8.57143 9.16898C7.62143 9.16898 6.85714 8.40251 6.85714 7.4498ZM6.85714 14.3265C6.85714 13.3738 7.62143 12.6073 8.57143 12.6073C14.5643 12.6073 19.4286 17.4855 19.4286 23.4955C19.4286 24.4482 18.6643 25.2147 17.7143 25.2147C16.7643 25.2147 16 24.4482 16 23.4955C16 19.3838 12.6714 16.0457 8.57143 16.0457C7.62143 16.0457 6.85714 15.2792 6.85714 14.3265ZM6.85714 22.9224C6.85714 22.3145 7.09796 21.7315 7.52661 21.3016C7.95527 20.8717 8.53665 20.6302 9.14286 20.6302C9.74907 20.6302 10.3304 20.8717 10.7591 21.3016C11.1878 21.7315 11.4286 22.3145 11.4286 22.9224C11.4286 23.5304 11.1878 24.1134 10.7591 24.5433C10.3304 24.9732 9.74907 25.2147 9.14286 25.2147C8.53665 25.2147 7.95527 24.9732 7.52661 24.5433C7.09796 24.1134 6.85714 23.5304 6.85714 22.9224Z" fill="#AAAAAA"/>
</svg>
